<svg width="20" height="12" viewBox="0 0 20 12" fill="none" xmlns="http://www.w3.org/2000/svg">
<path d="M10.0001 1.7574C10.5441 2.31456 10.9756 2.976 11.2699 3.70396C11.5643 4.43192 11.7158 5.21214 11.7158 6.00008C11.7158 6.78802 11.5643 7.56825 11.2699 8.29621C10.9756 9.02417 10.5441 9.68561 10.0001 10.2428L5.85802 6.00008L10.0001 1.7574Z" fill="#0125F6"/>
<path d="M1.71587 1.75753C2.25982 1.20037 2.90558 0.758411 3.61628 0.45688C4.32699 0.155349 5.08872 0.000152666 5.85798 0.000152617C6.62724 0.000152568 7.38897 0.155349 8.09967 0.45688C8.81037 0.758411 9.45613 1.20037 10.0001 1.75753L5.85798 6.00021L1.71587 1.75753Z" fill="#FE23FF"/>
<path d="M9.99998 1.75739C9.45604 2.31455 9.02455 2.97599 8.73017 3.70395C8.43578 4.43191 8.28427 5.21214 8.28427 6.00007C8.28427 6.78801 8.43578 7.56824 8.73017 8.2962C9.02455 9.02416 9.45604 9.6856 9.99998 10.2428L14.1421 6.00007L9.99998 1.75739Z" fill="#0125F6"/>
<path d="M9.99993 10.2426C10.5439 10.7998 11.1896 11.2417 11.9003 11.5433C12.611 11.8448 13.3728 12 14.142 12C14.9113 12 15.673 11.8448 16.3837 11.5433C17.0944 11.2417 17.7402 10.7998 18.2841 10.2426L14.142 5.99994L9.99993 10.2426Z" fill="#FE23FF"/>
<path d="M18.2843 10.2428C18.2843 10.2428 14.1422 6.00007 14.142 5.99994C14.1419 5.99981 14.6429 5.48716 14.6762 5.4531L18.7697 9.6519C19.0824 9.23544 19.357 8.78364 19.5541 8.29619C19.8485 7.56823 20 6.78801 20 6.00007C20 5.21213 19.8485 4.43191 19.5541 3.70395C19.2597 2.97599 18.8282 2.31454 18.2843 1.75739L14.1422 6.00007L18.2843 10.2428Z" fill="#F8F828"/>
<path d="M18.2841 1.75738C17.7402 1.20022 17.0944 0.758259 16.3837 0.456728C15.673 0.155196 14.9113 4.91974e-08 14.142 0C13.3728 -4.91973e-08 12.611 0.155196 11.9003 0.456727C11.4272 0.657465 10.9761 0.92334 10.5714 1.24111L14.6762 5.4531L14.1422 6.00007C14.142 5.99994 9.99998 1.75739 9.99998 1.75739L14.1421 6.00007L18.2841 1.75738Z" fill="#23FF19"/>
<path d="M8.09952 11.5433C8.57385 11.342 9.01925 11.0782 9.42477 10.7594L5.32011 6.55086L1.71579 10.2427C2.25972 10.7998 2.90546 11.2418 3.61613 11.5433C4.32684 11.8448 5.08856 12 5.85782 12C6.62708 12 7.38881 11.8448 8.09952 11.5433Z" fill="#F87328"/>
<path d="M0.4459 8.2962C0.740283 9.02417 1.17177 9.68561 1.71572 10.2428L1.71579 10.2427L1.71572 10.2426L5.30743 6.56327L5.31983 6.55057L1.21483 2.3417C0.901916 2.75836 0.643136 3.21623 0.445901 3.70396C0.151517 4.43192 8.16566e-08 5.21214 0 6.00008C-8.16565e-08 6.78802 0.151517 7.56824 0.4459 8.2962Z" fill="#23FF19"/>
</svg>
